<svg width="1390" height="1348" viewBox="0 0 1390 1348" fill="none" xmlns="http://www.w3.org/2000/svg">
<path d="M694.649 1347.31C1078.29 1347.31 1389.3 1167.75 1389.3 946.255C1389.3 724.757 1078.29 545.198 694.649 545.198C311.005 545.198 0 724.757 0 946.255C0 1167.75 311.005 1347.31 694.649 1347.31Z" fill="#F0F0F0"/>
<path d="M1093.58 1085.41C1048.03 1059.12 1048.03 1016.48 1093.58 990.185C1139.13 963.886 1212.99 963.886 1258.54 990.185C1304.09 1016.48 1304.09 1059.12 1258.54 1085.41C1212.99 1111.71 1139.13 1111.71 1093.58 1085.41Z" fill="#E0E0E0"/>
<path d="M167.11 1089.07L47.2908 1019.9C40.5391 1016.01 40.5391 1009.67 47.2908 1005.78L744.239 603.397C748.027 601.478 752.214 600.478 756.46 600.478C760.706 600.478 764.893 601.478 768.681 603.397L888.529 672.564C895.281 676.456 895.281 682.795 888.529 686.687L191.581 1089.07C187.788 1090.99 183.596 1091.99 179.345 1091.99C175.094 1091.99 170.903 1090.99 167.11 1089.07Z" fill="#E0E0E0"/>
<path d="M597.797 965.773L700.811 906.217C711.425 900.084 716.732 892.065 716.732 884.016C716.732 875.967 716.732 869.687 716.732 869.687L609.885 809.424C606.901 807.494 604.415 804.885 602.632 801.811C600.849 798.736 599.818 795.283 599.625 791.734V664.692L419.779 768.649V895.633C419.986 899.178 421.022 902.626 422.804 905.698C424.586 908.77 427.064 911.382 430.039 913.322L520.964 965.684C542.133 978.037 576.569 978.038 597.797 965.773Z" fill="#9747FF"/>
<g opacity="0.6">
<path d="M597.797 965.773L700.811 906.217C711.425 900.084 716.732 892.065 716.732 884.016C716.732 875.967 716.732 869.687 716.732 869.687L609.885 809.424C606.901 807.494 604.415 804.885 602.632 801.811C600.849 798.736 599.818 795.283 599.625 791.734V664.692L419.779 768.649V895.633C419.986 899.178 421.022 902.626 422.804 905.698C424.586 908.77 427.064 911.382 430.039 913.322L520.964 965.684C542.133 978.037 576.569 978.038 597.797 965.773Z" fill="black"/>
</g>
<path opacity="0.3" d="M462.913 918.128V932.398L429.951 913.381C426.976 911.443 424.5 908.831 422.723 905.758C420.946 902.685 419.917 899.236 419.72 895.691V768.649L453.979 748.866C454.687 757.564 455.453 766.556 456.19 775.401L432.103 789.258V888.468C432.294 892.018 433.323 895.471 435.107 898.546C436.89 901.621 439.377 904.23 442.363 906.158L462.913 918.128Z" fill="black"/>
<path d="M432.103 888.498C432.305 892.044 433.34 895.494 435.122 898.567C436.904 901.64 439.385 904.25 442.363 906.187L520.847 951.414C542.074 963.65 576.51 963.679 597.768 951.414L700.958 891.859C722.215 879.594 722.215 859.722 700.958 847.457L622.416 802.23C619.445 800.288 616.971 797.676 615.194 794.603C613.417 791.531 612.387 788.084 612.185 784.541V685.301L432.339 789.258L432.103 888.498Z" fill="#9747FF"/>
<path opacity="0.3" d="M432.103 888.498C432.305 892.044 433.34 895.494 435.122 898.567C436.904 901.64 439.385 904.25 442.363 906.187L520.847 951.414C542.074 963.65 576.51 963.679 597.768 951.414L700.958 891.859C722.215 879.594 722.215 859.722 700.958 847.457L622.416 802.23C619.445 800.288 616.971 797.676 615.194 794.603C613.417 791.531 612.387 788.084 612.185 784.541V685.301L432.339 789.258L432.103 888.498Z" fill="black"/>
<path opacity="0.5" d="M643.201 814.348L622.298 802.289C619.327 800.347 616.853 797.735 615.076 794.662C613.299 791.59 612.269 788.143 612.067 784.599V685.301L432.221 789.258V888.498C432.423 892.044 433.458 895.494 435.24 898.567C437.022 901.64 439.503 904.25 442.481 906.187L463.119 917.981L643.201 814.348Z" fill="black"/>
<path d="M716.761 869.717V884.046C716.761 892.095 711.425 900.085 700.84 906.247L597.65 965.773C586.357 971.801 573.744 974.931 560.943 974.883V960.613C573.744 960.661 586.357 957.531 597.65 951.503L700.84 891.918C711.425 885.815 716.761 877.766 716.761 869.717Z" fill="#9747FF"/>
<path opacity="0.5" d="M716.761 869.717V884.046C716.761 892.095 711.425 900.085 700.84 906.247L597.65 965.773C586.357 971.801 573.744 974.931 560.943 974.883V960.613C573.744 960.661 586.357 957.531 597.65 951.503L700.84 891.918C711.425 885.815 716.761 877.766 716.761 869.717Z" fill="black"/>
<path d="M143.169 1011.82C147.057 1013.7 151.332 1014.64 155.649 1014.56C159.966 1014.49 164.205 1013.4 168.024 1011.38L863.822 609.677C867.553 607.244 870.658 603.966 872.887 600.108C875.115 596.251 876.403 591.924 876.647 587.476V24.5869C876.514 20.2599 875.361 16.0256 873.28 12.2291C871.2 8.43255 868.252 5.18121 864.677 2.74004C860.794 0.86007 856.522 -0.0770181 852.208 0.00494979C847.895 0.0869177 843.662 1.18563 839.853 3.21176L144.054 405.035C140.336 407.484 137.25 410.777 135.046 414.645C132.843 418.514 131.586 422.848 131.376 427.295V990.096C131.508 994.387 132.643 998.588 134.691 1002.36C136.739 1006.14 139.643 1009.38 143.169 1011.82Z" fill="#9747FF"/>
<path d="M168.112 1011.35L863.911 609.648C867.646 607.219 870.755 603.943 872.984 600.084C875.213 596.226 876.499 591.896 876.736 587.447V24.587C876.736 16.4202 870.987 13.0886 863.911 17.1868L168.112 418.893C164.379 421.324 161.273 424.602 159.045 428.459C156.816 432.317 155.529 436.645 155.287 441.093V1003.95C155.287 1012.12 161.036 1015.45 168.112 1011.35Z" fill="#9747FF"/>
<path opacity="0.5" d="M168.112 1011.35L863.911 609.648C867.646 607.219 870.755 603.943 872.984 600.084C875.213 596.226 876.499 591.896 876.736 587.447V24.587C876.736 16.4202 870.987 13.0886 863.911 17.1868L168.112 418.893C164.379 421.324 161.273 424.602 159.045 428.459C156.816 432.317 155.529 436.645 155.287 441.093V1003.95C155.287 1012.12 161.036 1015.45 168.112 1011.35Z" fill="black"/>
<path d="M166.225 1025.98C162.576 1027.57 158.626 1028.35 154.646 1028.27C150.665 1028.19 146.75 1027.25 143.169 1025.51C139.635 1023.05 136.726 1019.8 134.678 1016.02C132.63 1012.23 131.499 1008.02 131.376 1003.72V952.476L155.405 966.392V1017.63C155.257 1025.09 160.004 1028.48 166.225 1025.98Z" fill="#9747FF"/>
<path opacity="0.5" d="M166.225 1025.98C162.576 1027.57 158.626 1028.35 154.646 1028.27C150.665 1028.19 146.75 1027.25 143.169 1025.51C139.635 1023.05 136.726 1019.8 134.678 1016.02C132.63 1012.23 131.499 1008.02 131.376 1003.72V952.476L155.405 966.392V1017.63C155.257 1025.09 160.004 1028.48 166.225 1025.98Z" fill="black"/>
<path d="M155.257 966.392V1017.63C155.257 1025.8 161.154 1029.1 168.083 1025.03L863.881 623.328C867.597 620.906 870.692 617.646 872.92 613.811C875.147 609.976 876.444 605.672 876.706 601.245V549.768L155.257 966.392Z" fill="#9747FF"/>
<path opacity="0.3" d="M155.287 966.274V1017.63C155.287 1025.8 161.183 1029.1 168.112 1025.03L863.911 623.328C867.621 620.903 870.711 617.642 872.933 613.807C875.155 609.972 876.447 605.67 876.706 601.245V549.768L155.287 966.274Z" fill="black"/>
<path d="M179.316 901.971V449.083C179.453 446.415 180.219 443.817 181.551 441.501C182.883 439.185 184.744 437.217 186.981 435.757L844.865 55.8094C849.11 53.3623 852.56 55.3377 852.56 60.2318V513.356C852.417 516.026 851.646 518.625 850.308 520.941C848.971 523.256 847.106 525.224 844.865 526.682L187.011 906.541C182.765 908.988 179.316 906.983 179.316 901.971Z" fill="#9747FF"/>
<path d="M179.316 901.971V449.083C179.453 446.415 180.219 443.817 181.551 441.501C182.883 439.185 184.744 437.217 186.981 435.757L844.865 55.8094C849.11 53.3623 852.56 55.3377 852.56 60.2318V513.356C852.417 516.026 851.646 518.625 850.308 520.941C848.971 523.256 847.106 525.224 844.865 526.682L187.011 906.541C182.765 908.988 179.316 906.983 179.316 901.971Z" fill="#263238"/>
<path d="M515.982 774.398C512.48 776.676 509.565 779.748 507.475 783.365C505.385 786.982 504.178 791.042 503.953 795.213C503.953 802.879 509.348 806.004 515.982 802.171C519.488 799.891 522.405 796.814 524.496 793.191C526.586 789.569 527.791 785.503 528.011 781.327C528.011 773.661 522.616 770.566 515.982 774.398Z" fill="#9747FF"/>
<path opacity="0.7" d="M159.061 428.415C156.776 432.256 155.47 436.6 155.257 441.064V966.392L131.376 952.476V427.295C131.531 422.816 132.83 418.452 135.15 414.617L159.061 428.415Z" fill="black"/>
<path opacity="0.3" d="M876.588 22.4642C875.674 15.86 870.338 13.6193 863.881 17.1868L168.083 418.893C164.31 421.252 161.196 424.528 159.031 428.416L134.973 414.529C137.152 410.643 140.275 407.368 144.054 405.006L839.853 3.32976C843.667 1.30335 847.905 0.204585 852.223 0.122624C856.542 0.0406636 860.818 0.977813 864.707 2.85804C867.975 5.08506 870.728 7.98795 872.777 11.3704C874.827 14.7529 876.127 18.5361 876.588 22.4642Z" fill="black"/>
<path d="M914.12 91.7493C913.087 91.2307 911.931 91.0033 910.778 91.0916C909.625 91.1799 908.518 91.5805 907.575 92.2505L251.048 471.52C248.457 473.233 246.307 475.533 244.77 478.232C243.233 480.932 242.354 483.955 242.203 487.057V937.174C242.111 938.694 242.413 940.211 243.079 941.58C243.745 942.949 244.754 944.122 246.006 944.987C247.451 945.783 255.175 950.265 257.475 951.503C258.289 951.917 259.198 952.108 260.109 952.057C261.021 952.005 261.903 951.712 262.664 951.208L919.044 571.939C921.635 570.225 923.785 567.926 925.322 565.226C926.858 562.527 927.738 559.504 927.889 556.401V103.955C928.021 102.812 927.831 101.655 927.342 100.613C926.852 99.5713 926.082 98.6868 925.118 98.0587C923.643 97.0857 915.771 92.7222 914.12 91.7493Z" fill="#9747FF"/>
<path d="M262.517 477.888L919.073 98.7662C924.027 95.8179 927.918 98.2355 927.918 103.955V556.401C927.767 559.504 926.888 562.527 925.351 565.226C923.814 567.926 921.664 570.225 919.073 571.939L262.517 951.208C257.563 954.156 253.672 949.409 253.672 943.69V493.426C253.827 490.324 254.709 487.303 256.245 484.604C257.781 481.906 259.929 479.605 262.517 477.888Z" fill="#FAFAFA"/>
<path d="M923.083 100.476C924.822 100.476 925.088 102.658 925.088 103.955V556.401C924.929 558.999 924.167 561.524 922.862 563.776C921.557 566.028 919.745 567.945 917.57 569.374L261.101 948.643C260.661 948.929 260.152 949.092 259.627 949.115C257.976 949.115 256.679 946.579 256.679 943.69V493.426C256.821 490.829 257.56 488.299 258.838 486.034C260.117 483.769 261.9 481.829 264.05 480.365L920.547 101.302C921.307 100.812 922.181 100.527 923.083 100.476ZM923.083 97.5281C921.662 97.5886 920.281 98.0151 919.073 98.7664L262.517 477.888C259.929 479.605 257.781 481.906 256.245 484.604C254.709 487.303 253.827 490.324 253.672 493.426V943.69C253.672 948.23 256.207 952.063 259.568 952.063C260.609 952.043 261.626 951.749 262.517 951.208L919.044 571.939C921.634 570.225 923.785 567.926 925.322 565.226C926.858 562.527 927.738 559.504 927.889 556.401V103.955C927.889 99.8867 925.884 97.5281 922.936 97.5281H923.083Z" fill="#E0E0E0"/>
<path d="M245.829 944.987C246.802 945.488 253.79 949.469 256.856 951.238C255.755 950.324 254.883 949.166 254.309 947.855C253.736 946.545 253.477 945.118 253.554 943.69V522.82L242.055 516.098V937.174C241.96 938.691 242.257 940.207 242.918 941.575C243.58 942.944 244.582 944.119 245.829 944.987Z" fill="#F0F0F0"/>
<path d="M928.036 103.867C928.036 98.2062 923.997 95.9065 919.191 98.7664L262.517 477.888C259.929 479.605 257.781 481.906 256.245 484.604C254.709 487.303 253.827 490.324 253.672 493.426V522.909L928.036 133.35V103.867Z" fill="#9747FF"/>
<g opacity="0.4">
<path d="M919.073 98.7663L262.517 477.859C259.882 479.52 257.711 481.823 256.207 484.551L244.797 477.918C246.298 475.285 248.451 473.082 251.048 471.52L907.575 92.2505C908.515 91.5759 909.621 91.17 910.774 91.0765C911.927 90.983 913.084 91.2054 914.12 91.7198C915.712 92.7223 923.172 96.9383 925.088 97.9702C924.096 97.6026 923.03 97.4829 921.982 97.6217C920.934 97.7604 919.935 98.1534 919.073 98.7663Z" fill="white"/>
</g>
<path opacity="0.15" d="M242.055 516.128V486.91C242.177 483.726 243.121 480.628 244.797 477.918L256.237 484.522C254.585 487.185 253.66 490.235 253.554 493.367V522.85L242.055 516.128Z" fill="black"/>
<path d="M789.584 443.275L396.369 670.294C394.457 671.535 392.865 673.21 391.723 675.182C390.58 677.155 389.92 679.369 389.795 681.645V794.388C389.92 796.664 390.58 798.879 391.723 800.851C392.865 802.823 394.457 804.498 396.369 805.739L407.838 812.343C409.877 813.374 412.129 813.912 414.413 813.912C416.697 813.912 418.949 813.374 420.988 812.343L814.143 585.324C816.056 584.077 817.648 582.397 818.791 580.419C819.933 578.442 820.593 576.224 820.718 573.944V461.171C820.593 458.895 819.933 456.681 818.79 454.708C817.648 452.736 816.056 451.061 814.143 449.82L802.645 443.216C800.616 442.202 798.376 441.679 796.108 441.689C793.839 441.699 791.604 442.242 789.584 443.275Z" fill="#9747FF"/>
<path opacity="0.5" d="M820.718 460.169C820.247 456.778 817.505 455.54 814.203 457.456L420.988 684.475C419.049 685.68 417.454 687.366 416.359 689.37L391.741 675.159C392.844 673.187 394.426 671.524 396.34 670.324L789.584 443.305C791.617 442.271 793.864 441.733 796.144 441.733C798.424 441.733 800.672 442.271 802.704 443.305L814.203 449.909C815.956 451.057 817.444 452.567 818.567 454.336C819.691 456.105 820.424 458.094 820.718 460.169Z" fill="white"/>
<path d="M419.867 812.903C417.942 813.662 415.878 814.007 413.811 813.916C411.744 813.824 409.719 813.298 407.868 812.373L396.369 805.768C394.46 804.524 392.871 802.849 391.729 800.877C390.587 798.905 389.924 796.692 389.795 794.417V681.675C389.883 679.373 390.553 677.132 391.741 675.159L416.359 689.37C415.163 691.317 414.492 693.542 414.413 695.826V808.599C414.413 812.343 416.772 814.083 419.867 812.903Z" fill="#263238"/>
<path d="M420.988 684.475L814.202 457.456C817.829 455.363 820.777 457.044 820.777 461.23V574.003C820.652 576.283 819.992 578.501 818.85 580.478C817.707 582.456 816.115 584.136 814.202 585.383L421.047 812.402C417.42 814.495 414.472 812.785 414.472 808.599V695.856C414.59 693.581 415.242 691.366 416.373 689.389C417.505 687.412 419.086 685.729 420.988 684.475Z" fill="#9747FF"/>
<path d="M685.332 503.479L396.399 670.324C394.485 671.524 392.903 673.187 391.8 675.159L416.418 689.37C417.513 687.366 419.108 685.68 421.047 684.475L709.98 517.661L685.332 503.479Z" fill="#455A64"/>
<path d="M709.921 517.661L420.988 684.475C419.075 685.723 417.483 687.403 416.341 689.38C415.198 691.357 414.538 693.576 414.413 695.856V808.569C414.413 812.756 417.361 814.466 420.988 812.373L709.921 645.558V517.661Z" fill="#37474F"/>
<path d="M487.619 670.736L636.715 584.676C642.877 581.108 647.889 583.644 647.889 590.336C647.613 594.095 646.455 597.736 644.508 600.963C642.562 604.191 639.882 606.913 636.685 608.911L487.619 695.001C481.457 698.568 476.416 696.033 476.416 689.34C476.694 685.578 477.853 681.934 479.799 678.702C481.745 675.471 484.424 672.742 487.619 670.736Z" fill="#9747FF"/>
<path d="M518.164 699.246C518.191 699.215 518.225 699.19 518.264 699.173C518.302 699.155 518.343 699.147 518.385 699.147C518.427 699.147 518.468 699.155 518.506 699.173C518.544 699.19 518.578 699.215 518.606 699.246C518.738 699.447 518.8 699.685 518.783 699.925V716.7C518.785 718.321 518.647 719.939 518.37 721.536C518.126 722.995 517.711 724.42 517.132 725.781C516.603 727.028 515.909 728.199 515.068 729.26C514.239 730.245 513.24 731.073 512.12 731.707C511.242 732.279 510.219 732.586 509.171 732.592C508.771 732.56 508.382 732.447 508.027 732.259C507.672 732.072 507.359 731.814 507.108 731.501C506.461 730.634 506.035 729.622 505.869 728.552C505.587 727.126 505.459 725.673 505.486 724.218V707.413C505.485 707.119 505.545 706.828 505.663 706.558C505.735 706.315 505.892 706.106 506.105 705.969L507.963 704.878C508.023 704.822 508.102 704.791 508.184 704.791C508.266 704.791 508.345 704.822 508.405 704.878C508.541 705.076 508.604 705.316 508.582 705.556V722.125C508.559 723.037 508.648 723.948 508.847 724.838C508.928 725.407 509.174 725.94 509.555 726.371C509.687 726.529 509.855 726.654 510.044 726.736C510.234 726.818 510.44 726.854 510.646 726.843C511.15 726.809 511.637 726.647 512.061 726.371C512.585 726.057 513.062 725.67 513.476 725.221C513.936 724.691 514.314 724.095 514.596 723.452C514.929 722.696 515.176 721.904 515.333 721.093C515.505 720.12 515.584 719.133 515.569 718.145V701.546C515.578 701.25 515.649 700.959 515.776 700.691C515.848 700.448 516.005 700.239 516.218 700.101L518.164 699.246Z" fill="#FAFAFA"/>
<path d="M529.721 715.108C529.736 714.892 529.685 714.676 529.574 714.489C529.504 714.412 529.416 714.354 529.319 714.318C529.221 714.282 529.117 714.27 529.013 714.283C528.652 714.233 528.285 714.233 527.923 714.283L526.213 714.607C525.661 714.744 525.084 714.744 524.532 714.607C524.099 714.468 523.726 714.188 523.471 713.811C523.182 713.332 522.992 712.801 522.911 712.248C522.623 710.669 522.623 709.051 522.911 707.472C523.132 706.567 523.448 705.687 523.854 704.848C524.258 704.011 524.752 703.22 525.328 702.49C525.886 701.794 526.565 701.204 527.333 700.75C527.953 700.372 528.647 700.131 529.367 700.043C529.89 699.988 530.417 700.102 530.871 700.367C531.303 700.631 531.643 701.022 531.844 701.487C532.082 702.037 532.212 702.628 532.227 703.227C532.258 703.523 532.196 703.822 532.05 704.082C531.978 704.325 531.821 704.534 531.608 704.671L529.839 705.703C529.758 705.75 529.667 705.774 529.574 705.774C529.481 705.774 529.389 705.75 529.308 705.703L528.925 705.408C528.773 705.288 528.588 705.216 528.394 705.202C528.015 705.244 527.652 705.376 527.333 705.585C526.87 705.864 526.461 706.224 526.124 706.647C525.767 707.111 525.58 707.683 525.593 708.268C525.552 708.492 525.552 708.722 525.593 708.946C525.65 709.03 525.724 709.099 525.811 709.15C525.898 709.201 525.995 709.232 526.095 709.241C526.417 709.295 526.746 709.295 527.068 709.241L528.719 708.946C530.104 708.681 531.048 708.946 531.667 709.713C532.318 710.805 532.616 712.071 532.522 713.339C532.514 714.216 532.395 715.087 532.168 715.934C531.935 716.853 531.599 717.743 531.166 718.587C530.733 719.46 530.188 720.273 529.544 721.005C528.933 721.722 528.206 722.33 527.392 722.803C526.744 723.218 526.006 723.471 525.24 723.54C524.685 723.56 524.139 723.405 523.677 723.098C523.222 722.787 522.872 722.345 522.675 721.83C522.436 721.271 522.316 720.669 522.321 720.061C522.293 719.756 522.355 719.449 522.498 719.177C522.57 718.934 522.727 718.725 522.94 718.587L524.709 717.555C524.945 717.555 525.122 717.408 525.24 717.555L525.623 717.968C525.701 718.056 525.796 718.127 525.903 718.178C526.009 718.229 526.124 718.258 526.242 718.263C526.657 718.265 527.061 718.13 527.392 717.88C527.924 717.578 528.402 717.189 528.807 716.73C529.008 716.487 529.176 716.22 529.308 715.934C529.517 715.7 529.659 715.415 529.721 715.108Z" fill="#FAFAFA"/>
<path d="M535.736 707.118C535.73 705.587 535.858 704.058 536.119 702.548C536.365 701.128 536.75 699.736 537.269 698.391C537.702 697.186 538.297 696.046 539.038 695.001C539.656 694.103 540.46 693.348 541.396 692.79C542.08 692.33 542.914 692.151 543.725 692.288C544.446 692.455 545.077 692.887 545.494 693.497C546.049 694.297 546.44 695.199 546.644 696.151C546.927 697.388 547.066 698.655 547.057 699.925V701.752C547.066 702.06 546.995 702.365 546.851 702.637C546.778 702.88 546.622 703.089 546.408 703.227L538.743 707.679C538.725 708.198 538.794 708.716 538.949 709.212C539.063 709.545 539.267 709.841 539.539 710.067C539.781 710.259 540.086 710.353 540.394 710.332C540.75 710.29 541.093 710.169 541.396 709.978C541.842 709.736 542.242 709.417 542.576 709.035C542.877 708.695 543.135 708.319 543.342 707.914C543.468 707.681 543.606 707.455 543.755 707.236C543.882 707.086 544.031 706.957 544.197 706.853L546.025 705.792C546.088 705.741 546.166 705.714 546.246 705.714C546.327 705.714 546.405 705.741 546.467 705.792C546.545 705.885 546.601 705.994 546.631 706.111C546.662 706.228 546.666 706.351 546.644 706.47C546.612 707.045 546.493 707.611 546.29 708.15C546.036 708.968 545.7 709.758 545.288 710.509C544.827 711.372 544.273 712.183 543.637 712.927C543.003 713.686 542.245 714.334 541.396 714.843C540.7 715.299 539.865 715.497 539.038 715.403C538.313 715.229 537.681 714.786 537.269 714.165C536.688 713.271 536.297 712.267 536.119 711.216C535.851 709.867 535.722 708.494 535.736 707.118ZM541.396 697.713C540.943 697.957 540.55 698.3 540.246 698.716C539.919 699.129 539.651 699.585 539.45 700.072C539.244 700.559 539.076 701.062 538.949 701.576C538.845 702.042 538.776 702.515 538.743 702.991L543.932 700.042C543.902 699.636 543.843 699.232 543.755 698.834C543.71 698.477 543.567 698.141 543.342 697.861C543.254 697.733 543.14 697.626 543.008 697.544C542.876 697.463 542.729 697.41 542.576 697.389C542.156 697.353 541.738 697.468 541.396 697.713Z" fill="#FAFAFA"/>
<path d="M556.315 689.488C555.421 689.998 554.718 690.784 554.31 691.728C553.851 692.973 553.641 694.295 553.691 695.62V706.263C553.695 706.567 553.634 706.869 553.514 707.148C553.441 707.391 553.285 707.6 553.071 707.738L551.332 708.74C551.304 708.771 551.27 708.796 551.232 708.814C551.194 708.831 551.153 708.84 551.111 708.84C551.069 708.84 551.028 708.831 550.989 708.814C550.951 708.796 550.917 708.771 550.89 708.74C550.758 708.54 550.696 708.301 550.713 708.062V688.986C550.714 688.683 550.774 688.383 550.89 688.102C550.972 687.864 551.127 687.658 551.332 687.512L553.071 686.51C553.131 686.454 553.21 686.423 553.293 686.423C553.375 686.423 553.454 686.454 553.514 686.51C553.65 686.697 553.713 686.928 553.691 687.158V688.102C554.042 687.311 554.477 686.56 554.988 685.861C555.454 685.216 556.058 684.682 556.757 684.299L557.818 683.679C557.873 683.625 557.947 683.595 558.025 683.595C558.102 683.595 558.176 683.625 558.231 683.679C558.373 683.876 558.446 684.115 558.437 684.358V687.041C558.432 687.347 558.362 687.648 558.231 687.925C558.156 688.159 558.012 688.365 557.818 688.515L556.315 689.488Z" fill="#FAFAFA"/>
<path d="M578.309 688.072C578.337 688.041 578.371 688.016 578.409 687.999C578.447 687.981 578.488 687.973 578.53 687.973C578.572 687.973 578.613 687.981 578.651 687.999C578.689 688.016 578.724 688.041 578.751 688.072C578.883 688.273 578.945 688.511 578.928 688.751V691.699C578.927 692.002 578.867 692.303 578.751 692.583C578.65 692.802 578.498 692.994 578.309 693.144L568.226 699.04C568.166 699.096 568.087 699.127 568.005 699.127C567.923 699.127 567.844 699.096 567.784 699.04C567.652 698.851 567.589 698.622 567.607 698.392V671.857C567.608 671.553 567.668 671.253 567.784 670.972C567.866 670.742 568.021 670.546 568.226 670.412L570.083 669.321C570.143 669.265 570.222 669.234 570.304 669.234C570.386 669.234 570.465 669.265 570.525 669.321C570.657 669.511 570.72 669.74 570.702 669.97V692.406L578.309 688.072Z" fill="#FAFAFA"/>
<path d="M587.36 666.255C588.024 665.796 588.825 665.577 589.63 665.636C590.321 665.69 590.964 666.007 591.429 666.52C591.978 667.151 592.381 667.897 592.608 668.702C592.923 669.746 593.102 670.826 593.139 671.916C593.139 672.152 593.139 672.476 593.139 672.859V675.129C593.139 675.483 593.139 675.807 593.139 676.073C593.081 677.354 592.903 678.628 592.608 679.876C592.336 681.092 591.94 682.278 591.429 683.414C590.962 684.472 590.357 685.463 589.63 686.362C589.009 687.177 588.238 687.868 587.36 688.397C586.678 688.84 585.873 689.057 585.061 689.016C584.38 688.957 583.747 688.641 583.292 688.131C582.726 687.523 582.321 686.783 582.112 685.979C581.797 684.935 581.619 683.855 581.582 682.765C581.582 682.53 581.582 682.235 581.582 681.851V679.581C581.582 679.198 581.582 678.874 581.582 678.638C581.616 677.346 581.784 676.062 582.083 674.805C582.37 673.58 582.775 672.385 583.292 671.238C583.76 670.187 584.354 669.197 585.061 668.289C585.686 667.466 586.467 666.775 587.36 666.255ZM590.132 673.862C590.13 673.209 590.021 672.562 589.807 671.945C589.698 671.569 589.47 671.239 589.159 671.002C588.907 670.833 588.604 670.76 588.304 670.795C587.967 670.859 587.646 670.989 587.36 671.179C587.014 671.368 586.696 671.607 586.417 671.886C586.079 672.238 585.791 672.635 585.562 673.066C585.266 673.602 585.047 674.178 584.913 674.776C584.72 675.529 584.601 676.299 584.559 677.075C584.559 677.311 584.559 677.576 584.559 677.901V679.994C584.559 680.318 584.559 680.584 584.559 680.761C584.587 681.413 584.706 682.058 584.913 682.677C585.021 683.054 585.249 683.385 585.562 683.62C585.684 683.707 585.824 683.768 585.971 683.798C586.118 683.829 586.27 683.828 586.417 683.797C586.751 683.741 587.071 683.621 587.36 683.444C587.702 683.246 588.019 683.009 588.304 682.736C588.633 682.377 588.92 681.981 589.159 681.557C589.442 681.015 589.66 680.44 589.807 679.847C590 679.094 590.109 678.323 590.132 677.547C590.149 677.272 590.149 676.996 590.132 676.721V674.658C590.149 674.393 590.149 674.127 590.132 673.862Z" fill="#FAFAFA"/>
<path d="M602.161 683.502C602.538 683.272 602.876 682.983 603.163 682.647C603.518 682.231 603.825 681.776 604.077 681.291C604.37 680.699 604.598 680.076 604.755 679.434C604.937 678.711 605.026 677.968 605.021 677.222V675.719C605.021 676.014 604.726 676.368 604.519 676.78C604.317 677.211 604.081 677.626 603.812 678.019C603.504 678.433 603.169 678.827 602.809 679.198C602.44 679.586 602.012 679.914 601.542 680.171C601.239 680.378 600.897 680.521 600.537 680.592C600.178 680.663 599.807 680.66 599.448 680.584C598.793 680.378 598.23 679.951 597.856 679.375C597.376 678.613 597.027 677.776 596.824 676.898C596.573 675.785 596.435 674.649 596.412 673.508C596.412 673.124 596.412 672.653 596.412 672.092C596.412 671.532 596.412 671.061 596.412 670.648C596.448 669.352 596.586 668.06 596.824 666.786C597.067 665.531 597.412 664.298 597.856 663.1C598.273 662.06 598.807 661.071 599.448 660.152C599.992 659.339 600.706 658.655 601.542 658.147C601.934 657.911 602.362 657.742 602.809 657.646C603.141 657.584 603.481 657.584 603.812 657.646C604.073 657.719 604.315 657.85 604.519 658.029C604.708 658.173 604.876 658.342 605.021 658.53V657.587C605.022 657.283 605.082 656.983 605.198 656.702C605.28 656.472 605.435 656.276 605.64 656.142L607.379 655.11C607.439 655.054 607.518 655.023 607.6 655.023C607.682 655.023 607.762 655.054 607.822 655.11C607.964 655.307 608.037 655.546 608.028 655.788V674.952C608.107 677.823 607.575 680.677 606.465 683.325C605.595 685.408 604.088 687.163 602.161 688.338C601.503 688.746 600.752 688.979 599.979 689.016C599.367 689.053 598.759 688.898 598.24 688.573C597.741 688.2 597.337 687.716 597.06 687.158C596.773 686.486 596.613 685.766 596.589 685.036C596.561 684.73 596.622 684.423 596.765 684.151C596.838 683.908 596.995 683.699 597.208 683.561L598.77 682.677C598.806 682.638 598.849 682.608 598.898 682.587C598.946 682.566 598.998 682.555 599.05 682.555C599.103 682.555 599.155 682.566 599.203 682.587C599.251 682.608 599.295 682.638 599.33 682.677C599.476 682.83 599.604 682.998 599.714 683.178C599.893 683.494 600.19 683.727 600.539 683.827C600.893 684.092 601.424 683.797 602.161 683.502ZM599.389 669.203C599.389 669.989 599.389 670.756 599.389 671.503C599.305 672.68 599.639 673.85 600.333 674.805C600.595 675.031 600.93 675.155 601.276 675.155C601.623 675.155 601.957 675.031 602.22 674.805C603.075 674.249 603.743 673.447 604.136 672.505C604.673 671.275 604.973 669.955 605.021 668.614C605.021 668.171 605.021 667.641 605.021 667.021C605.021 666.402 605.021 665.872 605.021 665.488C605.081 664.432 604.768 663.389 604.136 662.54C603.875 662.3 603.533 662.166 603.178 662.166C602.823 662.166 602.481 662.3 602.22 662.54C601.381 663.094 600.724 663.884 600.333 664.81C599.727 666.197 599.406 667.69 599.389 669.203Z" fill="#FAFAFA"/>
<path d="M614.897 643.022C614.956 642.974 615.029 642.948 615.104 642.948C615.179 642.948 615.252 642.974 615.31 643.022C615.464 643.213 615.539 643.456 615.517 643.7V646.914C615.519 647.221 615.448 647.524 615.31 647.799C615.228 648.02 615.085 648.214 614.897 648.359L612.922 649.509C612.894 649.54 612.86 649.565 612.822 649.582C612.784 649.6 612.743 649.608 612.701 649.608C612.659 649.608 612.618 649.6 612.58 649.582C612.541 649.565 612.507 649.54 612.48 649.509C612.403 649.42 612.345 649.317 612.309 649.206C612.274 649.094 612.262 648.976 612.273 648.86V645.646C612.271 645.339 612.342 645.036 612.48 644.762C612.562 644.532 612.718 644.335 612.922 644.202L614.897 643.022ZM615.399 670.707C615.4 671.001 615.339 671.292 615.222 671.562C615.128 671.793 614.975 671.997 614.78 672.152L613.011 673.154C612.986 673.185 612.954 673.21 612.918 673.227C612.883 673.244 612.844 673.253 612.804 673.253C612.765 673.253 612.725 673.244 612.69 673.227C612.654 673.21 612.623 673.185 612.598 673.154C612.443 672.963 612.369 672.72 612.391 672.476V653.4C612.389 653.093 612.46 652.79 612.598 652.516C612.681 652.286 612.823 652.083 613.011 651.926L614.78 650.924C614.84 650.868 614.919 650.837 615.001 650.837C615.083 650.837 615.162 650.868 615.222 650.924C615.354 651.113 615.416 651.342 615.399 651.572V670.707Z" fill="#FAFAFA"/>
<path d="M630.907 661.715C630.905 662.018 630.845 662.318 630.73 662.599C630.647 662.829 630.492 663.026 630.288 663.159L628.519 664.191C628.464 664.245 628.389 664.275 628.312 664.275C628.235 664.275 628.161 664.245 628.106 664.191C627.952 664.001 627.878 663.757 627.9 663.513V653.135C627.99 651.91 627.767 650.682 627.251 649.568C626.838 648.831 626.189 648.713 625.276 649.243C624.364 649.856 623.688 650.76 623.359 651.808C622.867 653.199 622.627 654.667 622.652 656.142V666.55C622.65 666.853 622.59 667.154 622.475 667.434C622.402 667.677 622.245 667.887 622.032 668.024L620.293 669.026C620.265 669.058 620.231 669.083 620.193 669.1C620.155 669.117 620.114 669.126 620.072 669.126C620.03 669.126 619.989 669.117 619.95 669.1C619.912 669.083 619.878 669.058 619.851 669.026C619.714 668.839 619.651 668.608 619.674 668.378V649.302C619.67 648.998 619.73 648.697 619.851 648.418C619.923 648.175 620.08 647.966 620.293 647.828L622.032 646.826C622.06 646.794 622.094 646.769 622.132 646.752C622.17 646.735 622.212 646.726 622.253 646.726C622.295 646.726 622.337 646.735 622.375 646.752C622.413 646.769 622.447 646.794 622.475 646.826C622.607 647.026 622.669 647.264 622.652 647.504V648.418C623.039 647.519 623.513 646.66 624.067 645.853C624.552 645.108 625.209 644.491 625.983 644.054C626.654 643.564 627.489 643.353 628.312 643.465C628.639 643.547 628.944 643.697 629.208 643.905C629.472 644.114 629.689 644.375 629.845 644.673C630.273 645.471 630.553 646.341 630.671 647.238C630.828 648.411 630.907 649.593 630.907 650.776V661.715Z" fill="#FAFAFA"/>
<path d="M779.619 575.89L750.991 592.4L755.443 552.244C751.993 550.416 749.812 545.964 749.812 539.567C749.812 528.157 756.769 514.919 765.32 510.084C773.87 505.248 780.798 510.378 780.798 521.877C780.621 528.642 778.691 535.245 775.196 541.041L779.619 575.89Z" fill="#455A64"/>
<path d="M779.648 575.89L754.44 561.354L750.991 592.43L779.648 575.89Z" fill="#37474F"/>
<path d="M765.261 509.995C759.026 514.207 754.377 520.381 752.052 527.537L775.137 540.864C778.632 535.068 780.562 528.465 780.739 521.7C780.798 510.29 773.87 505.071 765.261 509.995Z" fill="#37474F"/>
<path d="M626.101 376.29C616.283 370.629 602.75 371.425 587.773 380.064C557.877 397.341 533.642 439.295 533.642 473.819C533.642 491.155 539.775 503.302 549.622 508.904L568.698 519.99C578.486 525.651 592.019 524.825 607.026 516.186C636.921 498.939 661.156 456.955 661.156 422.431C661.156 405.183 655.083 392.948 645.294 387.434" fill="#9747FF"/>
<path d="M606.996 391.179C577.1 408.456 552.865 450.439 552.865 484.934C552.865 519.43 577.1 533.463 606.996 516.186C636.892 498.909 661.156 456.955 661.127 422.431C661.097 387.906 636.862 373.931 606.996 391.179Z" fill="#9747FF"/>
<path d="M636.862 467.775V471.726C629.7 484.51 619.428 495.28 606.996 503.037C595.35 509.73 584.825 510.467 577.1 506.192V498.054C577.495 489.588 579.913 481.34 584.15 474C588.387 466.66 594.32 460.441 601.453 455.864L609.325 451.324C616.283 447.314 623.064 446.784 628.371 449.879C633.678 452.975 636.862 459.491 636.862 467.775Z" fill="#9747FF"/>
<path opacity="0.4" d="M626.101 376.29L645.265 387.434C635.476 381.744 621.944 382.54 606.937 391.179C587.36 402.5 570.201 424.406 560.708 447.874L541.514 436.759C551.037 413.173 568.049 391.385 587.743 380.064C602.78 371.454 616.313 370.629 626.101 376.29Z" fill="white"/>
<path opacity="0.2" d="M568.02 519.548L549.652 508.904C539.804 503.302 533.672 491.214 533.672 473.819L552.865 484.964C552.983 501.769 558.644 513.739 568.02 519.548Z" fill="black"/>
<path opacity="0.1" d="M541.573 436.759L560.767 447.874C555.849 459.623 553.207 472.2 552.983 484.934L533.79 473.79C534.026 461.066 536.667 448.502 541.573 436.759Z" fill="black"/>
<path d="M600.156 449.466C598.327 449.486 596.526 449.018 594.937 448.11C593.023 446.834 591.49 445.065 590.498 442.989C589.507 440.913 589.095 438.608 589.306 436.317C589.556 430.945 591.09 425.712 593.777 421.054C596.465 416.397 600.23 412.451 604.755 409.546C606.573 408.095 608.787 407.226 611.107 407.053C613.427 406.88 615.745 407.412 617.758 408.577C619.771 409.743 621.385 411.489 622.39 413.587C623.394 415.686 623.743 418.038 623.389 420.337C623.134 425.708 621.598 430.94 618.911 435.596C616.224 440.253 612.462 444.2 607.939 447.108C605.599 448.569 602.913 449.382 600.156 449.466Z" fill="white"/>
<path d="M628.371 449.85C623.064 446.754 616.283 447.285 609.325 451.294L601.453 455.835C594.316 460.414 588.38 466.638 584.143 473.984C579.906 481.329 577.491 489.583 577.1 498.054V506.221C584.825 510.496 595.35 509.759 606.996 503.067C619.428 495.309 629.7 484.54 636.862 471.756V467.805C636.862 459.491 633.796 452.975 628.371 449.85Z" fill="white"/>
<path d="M1234.48 959.905C1234.48 959.905 1238.4 925.469 1255.53 898.728C1272.66 871.987 1296.19 855.329 1318.16 853.59C1340.12 851.85 1357.87 872.076 1334.37 886.021C1310.87 899.967 1269.12 914.059 1249.9 965.95L1234.48 959.905Z" fill="#9747FF"/>
<path opacity="0.1" d="M1234.48 959.905C1234.48 959.905 1238.4 925.469 1255.53 898.728C1272.66 871.987 1296.19 855.329 1318.16 853.59C1340.12 851.85 1357.87 872.076 1334.37 886.021C1310.87 899.967 1269.12 914.059 1249.9 965.95L1234.48 959.905Z" fill="black"/>
<path d="M1240.94 950.943H1240.7C1240.41 950.825 1240.18 950.597 1240.06 950.31C1239.94 950.023 1239.94 949.699 1240.05 949.41C1263.23 892.36 1307.33 868.508 1327.44 863.909C1327.59 863.874 1327.75 863.869 1327.9 863.895C1328.06 863.92 1328.2 863.976 1328.33 864.058C1328.46 864.14 1328.58 864.247 1328.67 864.374C1328.76 864.5 1328.82 864.642 1328.86 864.793C1328.89 864.944 1328.9 865.101 1328.87 865.254C1328.85 865.406 1328.79 865.553 1328.71 865.684C1328.63 865.816 1328.52 865.93 1328.39 866.02C1328.27 866.11 1328.12 866.174 1327.97 866.209C1308.28 870.749 1265.03 894.158 1242.24 950.324C1242.12 950.559 1241.93 950.748 1241.7 950.861C1241.46 950.973 1241.19 951.002 1240.94 950.943Z" fill="white"/>
<path d="M1358.22 951.621C1356.25 956.102 1351.35 958.461 1346.81 960.289C1342.27 962.117 1337.32 964.092 1334.84 968.338C1329.89 976.888 1338.03 988.976 1332.72 997.261C1331.47 998.928 1329.9 1000.33 1328.09 1001.37C1326.29 1002.41 1324.29 1003.08 1322.22 1003.33C1318.83 1003.95 1315.38 1003.95 1311.96 1004.25C1310.33 1004.23 1308.69 1004.1 1307.07 1003.86C1302.31 1002.8 1297.32 1003.33 1292.89 1005.37C1286.08 1009.2 1284.04 1017.78 1279.86 1024.41C1277.3 1028.32 1273.93 1031.63 1269.97 1034.11C1266.02 1036.59 1261.58 1038.19 1256.95 1038.8C1254 1039.19 1248.1 1039.75 1245.16 1038.01C1244.92 1037.89 1244.71 1037.75 1244.51 1037.59C1244.06 1037.12 1243.53 1036.5 1243.3 1036.18C1243.28 1036.11 1243.28 1036.04 1243.3 1035.97C1242.09 1031.52 1244.06 1026.92 1244.15 1022.32V1021.5C1243.95 1016.16 1243.8 1010.85 1243.68 1005.55C1243.43 995.718 1243.33 985.89 1243.39 976.062C1243.39 969.694 1242.68 962.736 1245.39 956.751C1248.34 950.147 1255.77 949.999 1258.57 943.542C1259.69 940.948 1260.28 938.206 1261.37 935.582C1263.06 931.767 1265.76 928.488 1269.18 926.102C1272.6 923.716 1276.61 922.314 1280.77 922.049C1293.71 921.401 1305.3 931.867 1318.24 930.894C1321.58 930.629 1324.85 929.597 1328.15 929.007C1338.62 927.032 1350.73 930.01 1356.63 938.884C1357.92 940.712 1358.75 942.831 1359.02 945.053C1359.3 947.275 1359.03 949.531 1358.22 951.621Z" fill="#9747FF"/>
<path d="M1242 1015.54C1241.72 1015.46 1241.49 1015.27 1241.34 1015.02C1241.2 1014.76 1241.16 1014.47 1241.23 1014.18C1259.1 947.139 1329.68 937.528 1346.28 938.648C1346.43 938.656 1346.57 938.692 1346.7 938.756C1346.83 938.82 1346.95 938.909 1347.05 939.019C1347.14 939.129 1347.22 939.258 1347.26 939.397C1347.31 939.535 1347.33 939.682 1347.31 939.828C1347.28 940.114 1347.14 940.379 1346.93 940.565C1346.71 940.752 1346.42 940.847 1346.13 940.83C1329.95 939.68 1260.84 949.144 1243.36 1014.77C1243.27 1015.05 1243.09 1015.29 1242.83 1015.43C1242.58 1015.57 1242.28 1015.61 1242 1015.54Z" fill="white"/>
<path d="M1320.51 981.576C1320.29 981.544 1320.08 981.441 1319.92 981.281C1313.4 975.625 1305.71 971.48 1297.39 969.141C1289.08 966.802 1280.35 966.326 1271.84 967.748C1271.55 967.775 1271.26 967.693 1271.03 967.518C1270.8 967.343 1270.65 967.088 1270.6 966.805C1270.56 966.516 1270.63 966.222 1270.8 965.985C1270.97 965.748 1271.23 965.587 1271.51 965.537C1280.4 964.058 1289.5 964.563 1298.16 967.015C1306.83 969.466 1314.84 973.805 1321.63 979.718C1321.74 979.82 1321.82 979.941 1321.88 980.075C1321.93 980.21 1321.96 980.354 1321.96 980.5C1321.96 980.645 1321.93 980.789 1321.88 980.923C1321.82 981.058 1321.74 981.179 1321.63 981.281C1321.5 981.44 1321.32 981.554 1321.12 981.606C1320.92 981.659 1320.71 981.648 1320.51 981.576Z" fill="white"/>
<path d="M1072.24 150.155L1081.61 153.752V133.114C1081.61 116.721 1094.67 112.8 1108.86 120.996C1123.07 129.193 1134.56 149.094 1134.56 165.486V168.435C1136.54 167.831 1138.63 167.681 1140.67 167.998C1142.71 168.315 1144.66 169.089 1146.36 170.263C1151.74 173.774 1156.22 178.506 1159.44 184.075C1162.65 189.643 1164.5 195.891 1164.84 202.311V203.667L1177.93 211.214C1181.48 213.526 1184.42 216.639 1186.54 220.301C1188.65 223.963 1189.88 228.072 1190.11 232.295C1190.11 240.078 1184.66 243.233 1177.93 239.341L1072.24 178.282C1068.69 175.976 1065.75 172.863 1063.63 169.2C1061.52 165.536 1060.31 161.424 1060.09 157.202C1060.09 149.448 1065.49 146.293 1072.24 150.155Z" fill="#E6E6E6"/>
<path d="M1197.81 133.822L1214.82 143.639C1214.72 142.896 1214.68 142.148 1214.67 141.399V136.475C1214.67 127.63 1220.8 124.151 1228.41 128.544C1231.68 130.545 1234.47 133.231 1236.61 136.416C1237.84 125.389 1246.51 121.291 1257.01 127.335C1263.01 131.238 1268 136.499 1271.59 142.692C1275.17 148.885 1277.25 155.835 1277.65 162.98V170.351C1277.72 173.296 1277.13 176.22 1275.91 178.901L1290.06 187.038C1292.26 188.501 1294.1 190.461 1295.41 192.76C1296.72 195.059 1297.47 197.633 1297.61 200.276C1297.61 205.141 1294.19 207.116 1289.97 204.699L1197.81 151.629C1195.58 150.177 1193.72 148.218 1192.4 145.912C1191.07 143.606 1190.31 141.019 1190.17 138.362C1190.17 133.379 1193.59 131.404 1197.81 133.822Z" fill="#E6E6E6"/>
<path d="M1131.94 581.285C1119.56 602.218 1107.65 620.409 1099.27 629.136C1083.38 636.506 1046.06 647.887 1031.46 649.774C1028.9 650.1 1026.3 649.493 1024.15 648.064C1018.4 644.29 1013.95 643.671 1007.91 641.577C1003.16 639.956 1001.15 637.686 1000.27 638.629C999.356 639.7 998.897 641.086 998.99 642.49C999.084 643.895 999.723 645.207 1000.77 646.147C1003.04 648.302 1005.55 650.182 1008.26 651.749C1001.79 653.355 995.033 653.476 988.506 652.103C975.858 648.771 969.902 654.845 978.452 668.584C981.4 673.478 993.547 681.35 1017.96 679.227C1026.67 678.758 1035.34 677.773 1043.93 676.279C1067.34 671.267 1093.38 666.432 1109.39 661.537C1115.34 659.196 1120.67 655.502 1124.95 650.747C1151.87 620.055 1160.8 598.179 1172.6 578.307L1171.6 545.876C1152.49 545.227 1142.29 563.772 1131.94 581.285Z" fill="#FFA8A7"/>
<path d="M1174.87 545.227C1169.33 544.448 1163.68 545.199 1158.54 547.397C1153.39 549.595 1148.95 553.157 1145.68 557.698C1132.59 574.474 1109.42 614.748 1109.42 614.748C1109.42 614.748 1116.99 634.944 1137.45 638.334L1170.33 593.933C1170.33 593.933 1185.89 563.094 1174.87 545.227Z" fill="#455A64"/>
<path d="M1245.95 997.909H1224.52V1036.12H1245.95V997.909Z" fill="#FFA8A7"/>
<path d="M1171.65 995.875L1150.25 996.641L1149.16 956.191L1171.65 955.424V995.875Z" fill="#FFA8A7"/>
<path d="M1248.96 667.139C1248.96 688.426 1245.83 859.929 1245.83 859.929C1246.31 866.061 1251.73 877.383 1250.64 900.939C1249.02 932.928 1246.87 1017.01 1246.87 1017.01C1243.19 1018.9 1239.13 1019.92 1234.99 1020C1230.86 1020.08 1226.76 1019.22 1223.01 1017.49C1223.01 1017.49 1205.62 899.554 1201.79 867.977C1198.42 840.293 1189.82 748.66 1189.82 748.66L1178.23 856.98C1180.69 868.603 1181.58 880.501 1180.88 892.36C1179.88 907.101 1172.98 983.403 1172.98 983.403C1169.28 985.588 1165.13 986.901 1160.84 987.243C1156.55 987.585 1152.25 986.948 1148.24 985.379C1148.24 985.379 1136.04 870.395 1135.8 856.892C1135.51 841.561 1142.94 666.962 1142.94 666.962L1248.96 667.139Z" fill="#37474F"/>
<path d="M1224.52 1025.09V1021.91C1222.45 1022.82 1217.71 1041.75 1209.19 1049.83C1202.43 1056.26 1193.24 1063.66 1190.88 1070.82C1188.52 1077.98 1203.7 1082.38 1210.04 1081.23C1217.35 1079.87 1230.09 1074.48 1233.27 1069.43C1236.46 1064.39 1237.96 1057.08 1240.56 1053.43C1243.15 1049.77 1249.14 1045.7 1250.52 1041.46C1250.95 1037.48 1250.54 1033.46 1249.31 1029.66C1248.31 1025.71 1247.25 1021.38 1245.95 1021.76V1024.18C1242.93 1026.66 1239.13 1028 1235.22 1027.95C1232.09 1028.22 1224.49 1027.57 1224.52 1025.09Z" fill="#263238"/>
<path d="M1150.01 989.742C1148.89 989.742 1147.98 991.423 1145.53 994.194C1141.89 998.022 1137.64 1001.21 1132.94 1003.63C1124.92 1007.82 1109.36 1014.24 1102.25 1017.57C1097.83 1019.64 1098.04 1025.18 1102.61 1028.34C1107.17 1031.49 1118.17 1033.76 1131.38 1030.69C1138.57 1029.01 1147.95 1022.09 1153.91 1022.47C1159.86 1022.85 1170.92 1022.73 1175.31 1019.52C1179.7 1016.31 1177.93 1009.64 1176.7 1003.89C1175.34 997.585 1173.75 987.767 1171.65 988.209V990.42C1169.09 994.489 1155.79 996.14 1150.13 993.162L1150.01 989.742Z" fill="#263238"/>
<path d="M1189.82 748.66C1178.67 745.01 1168.47 738.916 1159.98 730.823C1159.98 730.823 1165.88 742.055 1182.86 752.522L1179.2 849.256L1189.82 748.66Z" fill="#263238"/>
<path d="M1236.99 548.352C1236.99 548.352 1254.68 552.421 1253.41 584.38L1249.73 635.239V711.6C1233.98 729.466 1164.22 728.169 1140.2 710.184C1140.2 710.184 1142.91 619.819 1144.53 585.029C1145.68 560.322 1151.37 547.881 1175.66 545.168L1205.53 546.465L1236.99 548.352Z" fill="#9747FF"/>
<path d="M1214.46 481.957C1214.57 486.235 1213.82 490.492 1212.27 494.481C1210.72 498.47 1208.39 502.112 1205.43 505.198C1202.46 508.284 1198.91 510.753 1194.99 512.462C1191.07 514.17 1186.84 515.086 1182.56 515.154C1164.87 515.154 1154.5 499.882 1150.66 481.957C1143.59 449.142 1164.93 448.729 1182.56 448.729C1191.2 448.907 1199.41 452.508 1205.39 458.738C1211.37 464.969 1214.64 473.321 1214.46 481.957Z" fill="#263238"/>
<path d="M1230.74 495.371C1230.74 495.371 1225.84 519.312 1223.87 523.262C1222.63 525.64 1220.51 527.446 1217.97 528.304L1218.33 511.469L1230.74 495.371Z" fill="#263238"/>
<path d="M1224.58 461.083C1224.58 461.083 1228.08 460.198 1231.83 466.036C1235.01 471.018 1235.75 482.222 1230.74 495.519L1221.51 496.639L1224.58 461.083Z" fill="#263238"/>
<path d="M1227.97 465.947L1239.29 466.154C1239.37 465.422 1239.29 464.682 1239.07 463.981C1238.85 463.279 1238.48 462.631 1238 462.077C1237.51 461.524 1236.92 461.076 1236.25 460.763C1235.59 460.45 1234.86 460.277 1234.13 460.257C1232.58 460.279 1231.1 460.872 1229.96 461.923C1228.82 462.973 1228.11 464.406 1227.97 465.947Z" fill="#263238"/>
<path d="M1229.35 463.264L1237.73 455.216C1237.24 454.647 1236.65 454.184 1235.98 453.857C1235.31 453.53 1234.58 453.345 1233.83 453.314C1233.09 453.284 1232.34 453.408 1231.65 453.68C1230.95 453.951 1230.32 454.364 1229.79 454.891C1228.68 455.977 1228.02 457.441 1227.94 458.992C1227.86 460.543 1228.36 462.068 1229.35 463.264Z" fill="#263238"/>
<path d="M1218.74 496.492C1220.6 497.642 1223.22 493.956 1225.52 491.45C1227.82 488.944 1234.95 486.644 1238.67 494.782C1242.38 502.919 1236.04 510.968 1230.74 513.621C1221.22 518.339 1218.21 511.469 1218.21 511.469L1217.41 549.384C1204.03 570.022 1173.66 569.374 1184.6 548.382V536.854C1180.1 537.602 1175.53 537.839 1170.98 537.561C1163.55 536.382 1158.89 530.279 1156.62 521.906C1153.02 508.462 1151.64 497.612 1154.7 471.166C1158.06 442.214 1190.43 441.889 1207.77 453.476C1225.11 465.063 1218.74 496.492 1218.74 496.492Z" fill="#FFA8A7"/>
<path d="M1178.41 466.655C1186.13 465.888 1193.77 464.296 1201.52 463.707C1203.19 463.504 1204.89 463.584 1206.53 463.942C1212.43 465.564 1211.72 472.463 1212.66 477.269C1214.29 485.583 1215.61 499.646 1218.74 499.705C1219.68 499.705 1223.22 493.602 1225.52 491.421C1226.78 489.541 1227.5 487.346 1227.58 485.082C1228.17 481.662 1228.47 478.153 1228.73 474.674C1228.97 471.726 1229.26 468.778 1229.26 465.829C1229.4 462.498 1229.13 459.162 1228.47 455.894C1227.73 453.113 1226.31 450.56 1224.34 448.464L1223.75 447.815C1219.86 443.752 1215.15 440.575 1209.92 438.499C1202.41 435.682 1194.52 433.965 1186.51 433.398C1178.52 432.832 1170.56 431.848 1162.66 430.45C1162.21 430.318 1161.73 430.318 1161.28 430.45C1160.96 430.627 1160.69 430.882 1160.49 431.191C1160.29 431.5 1160.18 431.854 1160.16 432.219C1159.83 434.051 1160.03 435.937 1160.74 437.659C1161.44 439.381 1162.62 440.868 1164.14 441.948C1158.8 442.361 1152.67 439.59 1147.54 438.174C1147.12 437.998 1146.68 437.908 1146.22 437.908C1145.77 437.908 1145.33 437.998 1144.91 438.174C1144.4 438.534 1144.03 439.068 1143.88 439.678C1143.51 441.063 1143.46 442.516 1143.73 443.924C1144.2 448.191 1145.79 452.258 1148.33 455.717C1152.31 460.89 1157.92 464.56 1164.25 466.124C1168.92 467.023 1173.69 467.202 1178.41 466.655Z" fill="#263238"/>
<path d="M1184.63 536.854C1184.63 536.854 1201.2 533.375 1206.97 530.161C1210.42 528.278 1213.21 525.401 1214.99 521.906C1214.12 525.418 1212.57 528.724 1210.42 531.635C1206.21 537.296 1184.63 541.424 1184.63 541.424V536.854Z" fill="#F28F8F"/>
<path d="M1188.61 492.158C1188.57 493.068 1188.9 493.954 1189.52 494.622C1190.14 495.29 1191 495.687 1191.91 495.725C1192.63 495.785 1193.35 495.624 1193.98 495.266C1194.61 494.907 1195.12 494.366 1195.44 493.715C1195.76 493.063 1195.87 492.331 1195.76 491.614C1195.66 490.897 1195.34 490.229 1194.84 489.697C1194.35 489.165 1193.71 488.794 1193 488.633C1192.3 488.472 1191.56 488.529 1190.88 488.794C1190.21 489.06 1189.63 489.524 1189.23 490.124C1188.82 490.724 1188.6 491.433 1188.61 492.158Z" fill="#263238"/>
<path d="M1193.91 477.858L1201.02 481.957C1201.54 480.946 1201.65 479.778 1201.35 478.685C1201.04 477.592 1200.33 476.655 1199.37 476.06C1198.9 475.796 1198.38 475.632 1197.84 475.58C1197.3 475.528 1196.76 475.589 1196.24 475.758C1195.73 475.927 1195.26 476.201 1194.86 476.563C1194.46 476.925 1194.14 477.366 1193.91 477.858Z" fill="#263238"/>
<path d="M1186.1 516.068L1178.52 519.017C1178.68 519.536 1178.93 520.019 1179.28 520.435C1179.63 520.851 1180.06 521.191 1180.54 521.435C1181.02 521.678 1181.55 521.819 1182.09 521.85C1182.63 521.88 1183.18 521.799 1183.68 521.611C1184.71 521.167 1185.54 520.347 1185.99 519.318C1186.44 518.288 1186.48 517.127 1186.1 516.068Z" fill="#F28F8F"/>
<path d="M1158.12 480.895L1164.61 475.706C1164.32 475.253 1163.93 474.867 1163.48 474.571C1163.03 474.276 1162.53 474.079 1162 473.993C1161.46 473.907 1160.92 473.933 1160.4 474.071C1159.88 474.209 1159.4 474.454 1158.98 474.792C1158.11 475.527 1157.54 476.555 1157.39 477.681C1157.23 478.806 1157.49 479.95 1158.12 480.895Z" fill="#263238"/>
<path d="M1160.98 491.185C1161.03 491.83 1161.27 492.446 1161.67 492.958C1162.06 493.47 1162.6 493.855 1163.21 494.067C1163.82 494.279 1164.48 494.308 1165.11 494.151C1165.74 493.994 1166.31 493.658 1166.75 493.183C1167.19 492.708 1167.48 492.116 1167.59 491.478C1167.7 490.84 1167.62 490.184 1167.36 489.591C1167.1 488.997 1166.67 488.492 1166.13 488.136C1165.59 487.78 1164.96 487.59 1164.31 487.588C1163.86 487.603 1163.41 487.708 1162.99 487.898C1162.58 488.087 1162.21 488.357 1161.9 488.691C1161.59 489.026 1161.35 489.418 1161.19 489.846C1161.03 490.274 1160.96 490.729 1160.98 491.185Z" fill="#263238"/>
<path d="M1178.76 488.413L1178.38 509.376L1166.47 506.663L1178.76 488.413Z" fill="#F28F8F"/>
<path d="M895.9 663.985L914.385 653.312L921.697 644.437L903.241 655.11L895.9 663.985Z" fill="#9747FF"/>
<path opacity="0.4" d="M895.9 663.985L914.385 653.312L921.697 644.437L903.241 655.11L895.9 663.985Z" fill="black"/>
<path d="M946.168 692.996L964.654 682.323L980.074 668.672L961.617 679.316L946.168 692.996Z" fill="#9747FF"/>
<path opacity="0.4" d="M946.168 692.996L964.654 682.323L980.074 668.672L961.617 679.316L946.168 692.996Z" fill="black"/>
<path d="M1103.19 729.82C1107.57 735.679 1110.21 742.644 1110.83 749.927C1106.48 744.058 1103.84 737.099 1103.19 729.82ZM1146.15 730.38C1139.93 688.072 1117.2 646.236 1090.13 630.58C1077.13 623.062 1065.1 622.797 1055.46 628.428L1038.07 638.452L1037.09 639.042C1036.32 639.468 1035.57 639.941 1034.85 640.457C1033.42 641.441 1032.08 642.545 1030.84 643.759L1030.25 644.319C1029.72 644.85 1029.16 645.469 1028.66 646.059C1028.16 646.649 1027.39 647.563 1026.8 648.359C1025.55 650.006 1024.42 651.74 1023.41 653.548C1022.88 654.462 1022.38 655.435 1021.91 656.496L869.984 568.813L851.528 579.457V591.25L853.09 592.135L854.565 592.99V595.348L851.616 597.088V603.928L873.935 651.101L895.988 663.867L903.329 655.022L922.788 666.668L933.962 685.802L946.286 692.907L961.706 679.227L980.634 690.165L987.002 716.435L1018.81 734.832C1020.39 741.518 1022.36 748.104 1024.71 754.556C1024.92 755.205 1025.18 755.883 1025.45 756.62C1036 784.334 1052.78 808.068 1071.71 819.006C1073.98 820.351 1076.35 821.505 1078.81 822.456C1080.11 822.973 1081.44 823.416 1082.79 823.782C1083.97 824.097 1085.15 824.362 1086.33 824.578C1090.05 825.257 1093.87 825.257 1097.59 824.578L1099.13 824.195C1099.86 824.047 1100.58 823.84 1101.28 823.576L1102.93 822.927C1103.51 822.716 1104.08 822.45 1104.61 822.131C1105.15 821.896 1105.69 821.63 1106.2 821.335L1106.97 820.864C1107.11 820.818 1107.24 820.748 1107.35 820.657C1111.57 818.24 1121.95 812.225 1124.78 810.633C1138.81 802.496 1147.89 781.917 1147.89 752.817C1147.87 745.305 1147.29 737.806 1146.15 730.38Z" fill="#9747FF"/>
<path d="M1097.8 765.524C1090.49 761.308 1084.59 748.807 1084.59 737.604C1084.59 726.4 1090.49 720.71 1097.8 724.896C1105.11 729.083 1110.98 741.613 1110.98 752.846C1110.98 764.079 1105.08 769.74 1097.8 765.524ZM1127.67 741.024C1121.47 698.745 1098.74 656.879 1071.65 641.253C1059.09 634 1047.47 633.47 1038.04 638.452L1037.06 639.042C1036.29 639.468 1035.54 639.941 1034.82 640.457C1033.39 641.441 1032.05 642.545 1030.81 643.759L1030.22 644.319C1029.69 644.85 1029.13 645.469 1028.63 646.059C1028.13 646.649 1027.36 647.562 1026.77 648.359C1025.52 650.006 1024.39 651.74 1023.38 653.548C1022.85 654.462 1022.35 655.434 1021.88 656.496C1019.13 662.195 1017.15 668.232 1015.98 674.451L851.498 579.457V591.25L853.061 592.134L854.535 592.989V595.348L851.587 597.088V603.928L873.905 651.1L895.959 663.867L903.3 655.022L922.759 666.667L933.933 685.802L946.257 692.907L961.676 679.227L980.604 690.165L986.973 716.435L1018.81 734.832C1020.39 741.518 1022.36 748.104 1024.71 754.556C1024.92 755.205 1025.18 755.883 1025.45 756.62C1036 784.334 1052.78 808.068 1071.71 819.006C1073.98 820.351 1076.35 821.505 1078.81 822.456C1080.11 822.973 1081.44 823.416 1082.79 823.782C1083.97 824.097 1085.15 824.362 1086.33 824.578C1090.05 825.257 1093.87 825.257 1097.59 824.578L1099.13 824.195C1099.86 824.047 1100.58 823.84 1101.28 823.576L1102.93 822.927C1103.51 822.716 1104.08 822.45 1104.61 822.131C1105.15 821.896 1105.69 821.63 1106.2 821.335L1106.97 820.864C1107.11 820.818 1107.24 820.748 1107.35 820.657C1120.8 812.166 1129.43 791.882 1129.43 763.49C1129.38 755.968 1128.79 748.46 1127.67 741.024Z" fill="#9747FF"/>
<path opacity="0.4" d="M1110.98 752.817C1110.98 764.05 1105.08 769.74 1097.8 765.524C1090.52 761.308 1084.59 748.837 1084.59 737.604C1084.59 726.371 1090.49 720.68 1097.8 724.896C1099.9 726.178 1101.74 727.861 1103.19 729.85C1103.83 737.13 1106.47 744.091 1110.83 749.957C1110.94 750.906 1110.99 751.861 1110.98 752.817Z" fill="black"/>
<path opacity="0.4" d="M1147.83 752.787C1147.83 781.887 1138.75 802.466 1124.72 810.604C1121.77 812.196 1111.51 818.21 1107.29 820.628C1120.74 812.137 1129.38 791.852 1129.38 763.46C1129.34 755.95 1128.77 748.452 1127.67 741.024C1121.47 698.745 1098.74 656.879 1071.65 641.253C1059.09 634 1047.47 633.47 1038.04 638.452L1055.43 628.428C1065.07 622.797 1077.1 623.062 1090.1 630.58C1117.2 646.236 1139.93 688.072 1146.12 730.38C1147.24 737.797 1147.82 745.286 1147.83 752.787Z" fill="white"/>
<path d="M1129.38 763.401C1129.38 791.793 1120.74 812.078 1107.29 820.569C1111.51 818.151 1121.89 812.137 1124.72 810.544C1138.75 802.407 1147.83 781.828 1147.83 752.728C1147.83 751.667 1147.83 750.576 1147.83 749.485L1129.38 760.158C1129.35 761.308 1129.38 762.369 1129.38 763.401Z" fill="#9747FF"/>
<path opacity="0.1" d="M1129.38 763.401C1129.38 791.793 1120.74 812.078 1107.29 820.569C1111.51 818.151 1121.89 812.137 1124.72 810.544C1138.75 802.407 1147.83 781.828 1147.83 752.728C1147.83 751.667 1147.83 750.576 1147.83 749.485L1129.38 760.158C1129.35 761.308 1129.38 762.369 1129.38 763.401Z" fill="black"/>
<path opacity="0.15" d="M1016.69 686.51V692.495L851.528 597.147L854.565 595.378V592.901L1016.69 686.51Z" fill="black"/>
<path opacity="0.15" d="M1016.69 688.986V692.495L851.528 597.147L854.565 595.378V595.348L1016.69 688.986Z" fill="black"/>
<path opacity="0.15" d="M1088.51 810.574C1082.25 810.411 1076.15 808.59 1070.82 805.297C1043.9 789.759 1022 743.53 1022 702.254C1022 678.166 1029.28 660.181 1041.99 652.84C1050.83 647.71 1061.3 648.359 1072.3 654.698C1099.19 670.235 1121.09 716.612 1121.09 757.888C1121.09 781.946 1113.81 799.96 1101.1 807.272C1097.27 809.461 1092.93 810.6 1088.51 810.574ZM1054.75 652.398C1050.83 652.376 1046.96 653.393 1043.55 655.346C1031.96 662.039 1025.04 679.581 1025.04 702.224C1025.04 742.557 1046.26 787.725 1072.39 802.702C1082.38 808.599 1091.84 809.129 1099.72 804.589C1111.3 797.896 1118.23 780.383 1118.23 757.741C1118.23 717.378 1097 672.24 1070.91 657.233C1066.03 654.266 1060.46 652.639 1054.75 652.516V652.398Z" fill="black"/>
<path opacity="0.4" d="M1021.76 656.437C1019.01 662.136 1017.03 668.173 1015.87 674.392L851.38 579.398L869.837 568.755L1021.76 656.437Z" fill="white"/>
<path d="M1235.54 665.665C1244.15 649.361 1254 612.743 1258.89 594.257C1265.85 568.017 1254.59 551.507 1241.79 550.829C1233.8 552.067 1207.48 647.798 1207.48 647.798C1204.53 650.128 1164.52 670.441 1151.66 675.542C1149.37 676.412 1146.83 676.412 1144.53 675.542C1138.37 673.301 1134.15 673.714 1128.11 673.124C1123.36 672.653 1120.97 670.972 1120.35 671.974C1119.79 673.219 1119.72 674.629 1120.15 675.924C1120.58 677.219 1121.49 678.304 1122.68 678.962C1125.29 680.478 1128.06 681.685 1130.94 682.559C1125.77 684.126 1120.39 684.853 1114.99 684.711C1102.61 684.446 1098.15 689.812 1107.76 702.401C1113.66 710.243 1123.42 712.72 1145.21 705.202C1151.46 703.02 1159.95 698.804 1167.88 695.944C1184.21 690.048 1188.52 689.34 1200.96 685.124C1219.09 678.991 1231.71 672.918 1235.54 665.665Z" fill="#FFA8A7"/>
<path d="M1236.99 548.352C1244.51 549.384 1251.73 551.065 1256.18 557.197C1260.63 563.33 1264.2 571.939 1259.84 595.378C1256.5 611.862 1252.02 628.096 1246.45 643.966C1246.45 643.966 1228.94 651.454 1210.34 632.467L1223.13 582.995C1223.13 582.995 1225.2 550.829 1236.99 548.352Z" fill="#455A64"/>
</svg>
